<svg width="407" height="425" viewBox="0 0 407 425" fill="none" xmlns="http://www.w3.org/2000/svg">
<path d="M169.425 138.881C122.924 182.881 163.424 216.289 169.425 223.381C175.425 230.473 224.924 281.881 224.924 281.881C224.924 281.881 253.925 310.381 295.425 350.881C336.925 391.381 402.425 323.881 360.425 281.881C318.425 239.881 320.425 242.881 291.425 212.881C262.425 182.881 291.425 149.881 291.425 149.881C291.425 149.881 319.425 120.881 360.425 78.8812C401.425 36.8811 335.925 -28.6189 291.425 15.8811C246.925 60.3811 215.925 94.8811 169.425 138.881Z" fill="#2E3565"/>
<path d="M325.925 166.881C325.925 166.881 310.925 180.881 325.925 196.381C340.925 211.881 356.425 227.381 374.925 245.881C393.425 264.381 416.425 233.381 397.925 217.381C379.425 201.381 374.925 193.881 374.925 193.881C374.925 193.881 363.425 180.381 374.925 168.881C386.425 157.381 390.425 153.881 402.425 141.381C414.425 128.881 392.425 102.881 377.425 115.881C362.425 128.881 325.925 166.881 325.925 166.881Z" fill="#2E3565"/>
<path d="M78.9254 223.381C78.9254 223.381 98.9253 238.381 78.9254 256.881C58.9254 275.381 48.9254 286.881 31.4254 304.381C13.9254 321.881 -8.07466 290.881 4.92537 278.881C17.9254 266.881 31.4254 252.881 31.4254 252.881C31.4254 252.881 42.9254 239.881 31.4254 227.881C19.9254 215.881 17.4254 212.881 4.92537 199.381C-7.57471 185.881 14.4253 159.381 31.4254 175.381C48.4254 191.381 78.9254 223.381 78.9254 223.381Z" fill="#007286"/>
<path d="M32.4254 137.381C-9.57463 93.3811 57.4254 31.8811 95.9254 68.8811C134.425 105.881 167.425 140.381 167.425 140.381C167.425 140.381 121.925 176.381 168.925 223.881C215.925 271.381 224.924 281.881 224.924 281.881C224.924 281.881 141.425 369.881 98.4254 411.881C55.4254 453.881 -7.07471 379.381 31.4254 341.381C69.9254 303.381 88.4254 284.381 104.425 267.881C120.425 251.381 113.925 221.881 106.425 213.381C98.9254 204.881 74.4255 181.381 32.4254 137.381Z" fill="#007286"/>
<path d="M291.425 149.881L291.065 149.534L291.057 149.542L291.049 149.551L291.425 149.881ZM325.925 166.881L326.267 167.247L326.277 167.237L326.286 167.227L325.925 166.881ZM374.925 193.881L375.354 193.624L375.333 193.588L375.306 193.557L374.925 193.881ZM78.9254 223.381L78.5634 223.726L78.5921 223.756L78.6254 223.781L78.9254 223.381ZM31.4254 252.881L31.7853 253.228L31.7928 253.22L31.7999 253.212L31.4254 252.881ZM167.425 140.381L167.736 140.773L168.166 140.432L167.787 140.035L167.425 140.381ZM169.081 138.518C157.407 149.564 151.16 159.977 148.482 169.514C145.802 179.056 146.704 187.683 149.264 195.134C154.367 209.99 166.107 220.234 169.043 223.704L169.806 223.058C166.742 219.436 155.231 209.43 150.209 194.809C147.706 187.522 146.827 179.104 149.445 169.785C152.063 160.461 158.192 150.198 169.768 139.244L169.081 138.518ZM169.043 223.704C172.056 227.265 185.947 241.906 199.063 255.636C205.626 262.506 212.001 269.154 216.736 274.084C219.103 276.549 221.06 278.585 222.425 280.005C223.108 280.715 223.643 281.27 224.007 281.649C224.189 281.838 224.328 281.983 224.422 282.08C224.469 282.129 224.504 282.166 224.528 282.191C224.54 282.203 224.549 282.212 224.555 282.219C224.558 282.222 224.56 282.224 224.562 282.226C224.563 282.226 224.563 282.227 224.564 282.227C224.564 282.228 224.564 282.228 224.924 281.881C225.285 281.534 225.284 281.534 225.284 281.534C225.284 281.533 225.283 281.533 225.282 281.532C225.281 281.53 225.279 281.528 225.276 281.525C225.27 281.519 225.261 281.509 225.249 281.497C225.225 281.472 225.189 281.435 225.142 281.387C225.049 281.289 224.909 281.144 224.727 280.955C224.363 280.577 223.829 280.021 223.146 279.312C221.781 277.892 219.824 275.857 217.457 273.391C212.723 268.461 206.348 261.814 199.786 254.945C186.653 241.198 172.794 226.589 169.806 223.058L169.043 223.704ZM224.924 281.881C224.574 282.238 224.574 282.238 224.574 282.238C224.575 282.238 224.575 282.239 224.575 282.239C224.576 282.24 224.577 282.241 224.579 282.243C224.583 282.246 224.588 282.252 224.595 282.259C224.609 282.272 224.63 282.293 224.658 282.321C224.715 282.376 224.799 282.458 224.91 282.568C225.132 282.786 225.464 283.112 225.901 283.542C226.775 284.4 228.07 285.672 229.754 287.324C233.121 290.629 238.043 295.457 244.262 301.551C256.7 313.738 274.326 330.989 295.076 351.239L295.774 350.523C275.025 330.274 257.4 313.024 244.962 300.836C238.744 294.743 233.822 289.915 230.454 286.61C228.771 284.958 227.476 283.686 226.602 282.828C226.165 282.399 225.833 282.073 225.611 281.854C225.499 281.745 225.415 281.663 225.359 281.607C225.331 281.58 225.31 281.559 225.296 281.545C225.289 281.538 225.284 281.533 225.28 281.53C225.278 281.528 225.277 281.527 225.276 281.526C225.276 281.525 225.275 281.525 225.275 281.525C225.275 281.525 225.275 281.525 224.924 281.881ZM295.076 351.239C305.558 361.469 317.582 364.895 329.052 363.589C340.506 362.285 351.375 356.266 359.599 347.664C367.823 339.062 373.429 327.848 374.322 316.114C375.216 304.367 371.381 292.13 360.779 281.528L360.072 282.235C370.469 292.632 374.197 304.583 373.325 316.039C372.452 327.508 366.965 338.513 358.876 346.973C350.787 355.434 340.125 361.322 328.939 362.595C317.768 363.867 306.042 360.544 295.774 350.523L295.076 351.239ZM360.779 281.528C318.766 239.515 320.782 242.531 291.784 212.534L291.065 213.229C320.068 243.231 318.085 240.247 360.072 282.235L360.779 281.528ZM291.784 212.534C277.438 197.692 277.443 182.144 281.029 170.276C282.824 164.331 285.52 159.311 287.769 155.774C288.893 154.007 289.904 152.613 290.632 151.662C290.997 151.186 291.29 150.822 291.492 150.577C291.593 150.455 291.671 150.362 291.723 150.301C291.749 150.27 291.769 150.247 291.782 150.232C291.789 150.225 291.793 150.219 291.797 150.216C291.798 150.214 291.799 150.213 291.8 150.212C291.8 150.212 291.8 150.211 291.801 150.211C291.801 150.211 291.801 150.211 291.425 149.881C291.049 149.551 291.049 149.551 291.049 149.552C291.048 149.552 291.048 149.553 291.047 149.553C291.046 149.554 291.045 149.556 291.043 149.558C291.039 149.563 291.033 149.569 291.026 149.578C291.011 149.595 290.99 149.62 290.962 149.652C290.906 149.718 290.825 149.814 290.721 149.941C290.512 150.194 290.211 150.568 289.839 151.053C289.095 152.024 288.067 153.443 286.925 155.238C284.643 158.826 281.901 163.931 280.071 169.986C276.406 182.118 276.412 198.07 291.065 213.229L291.784 212.534ZM291.425 149.881C291.785 150.228 291.785 150.228 291.785 150.228C291.785 150.228 291.786 150.227 291.786 150.227C291.787 150.226 291.788 150.225 291.79 150.223C291.793 150.22 291.798 150.214 291.805 150.207C291.819 150.193 291.839 150.172 291.866 150.144C291.92 150.088 292.002 150.004 292.109 149.892C292.324 149.67 292.645 149.338 293.068 148.9C293.913 148.025 295.167 146.729 296.8 145.041C300.065 141.666 304.847 136.729 310.909 130.479C323.034 117.98 340.283 100.23 360.783 79.2304L360.067 78.5319C339.567 99.5324 322.317 117.283 310.191 129.783C304.129 136.033 299.347 140.971 296.081 144.346C294.448 146.033 293.194 147.33 292.349 148.205C291.926 148.643 291.605 148.975 291.39 149.198C291.282 149.309 291.201 149.393 291.147 149.449C291.12 149.477 291.099 149.498 291.086 149.513C291.079 149.52 291.074 149.525 291.07 149.528C291.069 149.53 291.067 149.532 291.067 149.532C291.066 149.533 291.066 149.533 291.066 149.533C291.065 149.534 291.065 149.534 291.425 149.881ZM360.783 79.2304C371.134 68.6272 374.781 56.5143 373.696 45.0139C372.613 33.5269 366.814 22.6849 358.333 14.5821C349.851 6.47864 338.662 1.09096 326.768 0.545667C314.862 -0.00017206 302.29 4.30857 291.071 15.5275L291.779 16.2347C302.81 5.20362 315.113 1.01234 326.722 1.54462C338.344 2.07744 349.311 7.34601 357.642 15.3051C365.973 23.2647 371.643 33.8915 372.701 45.1077C373.757 56.3104 370.217 68.1351 360.067 78.5319L360.783 79.2304ZM291.071 15.5275C246.548 60.0513 215.578 94.5207 169.081 138.518L169.768 139.244C216.272 95.2414 247.302 60.7109 291.779 16.2347L291.071 15.5275ZM325.925 166.881C325.584 166.516 325.584 166.516 325.584 166.516C325.584 166.516 325.583 166.517 325.583 166.517C325.582 166.518 325.581 166.518 325.58 166.52C325.578 166.522 325.575 166.525 325.57 166.529C325.562 166.536 325.551 166.548 325.536 166.562C325.506 166.591 325.462 166.633 325.407 166.689C325.296 166.799 325.138 166.962 324.943 167.174C324.552 167.597 324.014 168.217 323.417 169.01C322.224 170.593 320.787 172.873 319.828 175.656C318.867 178.441 318.383 181.735 319.107 185.331C319.832 188.93 321.759 192.795 325.566 196.729L326.285 196.033C322.592 192.218 320.769 188.52 320.087 185.134C319.405 181.746 319.859 178.634 320.773 175.982C321.689 173.326 323.065 171.138 324.215 169.612C324.79 168.849 325.306 168.255 325.678 167.852C325.863 167.651 326.013 167.497 326.114 167.395C326.165 167.344 326.204 167.306 326.23 167.281C326.243 167.269 326.253 167.26 326.259 167.254C326.262 167.251 326.264 167.249 326.265 167.248C326.266 167.247 326.266 167.247 326.267 167.247C326.267 167.246 326.267 167.246 326.267 167.246C326.267 167.246 326.267 167.247 325.925 166.881ZM325.566 196.729C340.57 212.232 356.073 227.735 374.572 246.235L375.279 245.528C356.778 227.027 341.281 211.53 326.285 196.033L325.566 196.729ZM374.572 246.235C379.29 250.953 384.344 252.555 388.987 251.979C393.613 251.405 397.757 248.676 400.696 244.874C406.569 237.278 407.749 225.216 398.253 217.003L397.598 217.759C406.602 225.546 405.532 236.984 399.905 244.263C397.094 247.898 393.175 250.451 388.864 250.986C384.569 251.52 379.811 250.06 375.279 245.528L374.572 246.235ZM398.253 217.003C389.016 209.015 383.283 203.155 379.862 199.299C378.152 197.371 377.02 195.945 376.318 195.004C375.968 194.534 375.724 194.185 375.57 193.955C375.492 193.841 375.437 193.756 375.402 193.701C375.385 193.673 375.372 193.653 375.364 193.64C375.36 193.634 375.357 193.629 375.356 193.626C375.355 193.625 375.354 193.624 375.354 193.624C375.354 193.624 375.354 193.623 375.354 193.623C375.354 193.623 375.354 193.624 375.354 193.624C375.354 193.624 375.354 193.624 374.925 193.881C374.497 194.138 374.497 194.139 374.497 194.139C374.497 194.139 374.497 194.139 374.497 194.139C374.498 194.14 374.498 194.14 374.498 194.141C374.499 194.143 374.5 194.144 374.502 194.147C374.505 194.151 374.509 194.158 374.514 194.166C374.524 194.183 374.539 194.207 374.559 194.238C374.599 194.3 374.658 194.392 374.74 194.514C374.904 194.757 375.157 195.119 375.517 195.602C376.237 196.567 377.387 198.016 379.114 199.963C382.568 203.857 388.335 209.747 397.598 217.759L398.253 217.003ZM374.925 193.881C375.306 193.557 375.306 193.557 375.306 193.557C375.306 193.557 375.306 193.557 375.306 193.557C375.306 193.557 375.306 193.556 375.305 193.556C375.304 193.555 375.302 193.553 375.3 193.55C375.295 193.544 375.288 193.535 375.278 193.523C375.258 193.499 375.228 193.463 375.189 193.414C375.111 193.317 374.997 193.171 374.855 192.98C374.57 192.598 374.174 192.037 373.733 191.328C372.85 189.908 371.794 187.902 371.092 185.55C369.692 180.865 369.692 174.822 375.279 169.235L374.572 168.528C368.659 174.44 368.658 180.897 370.134 185.837C370.869 188.297 371.969 190.385 372.884 191.856C373.341 192.592 373.754 193.176 374.053 193.577C374.203 193.778 374.324 193.933 374.409 194.039C374.451 194.092 374.484 194.133 374.507 194.161C374.519 194.175 374.528 194.185 374.534 194.193C374.537 194.196 374.54 194.199 374.542 194.201C374.542 194.203 374.543 194.203 374.544 194.204C374.544 194.204 374.544 194.205 374.544 194.205C374.545 194.205 374.545 194.205 374.925 193.881ZM375.279 169.235C386.765 157.748 390.783 154.231 402.786 141.727L402.065 141.035C390.068 153.531 386.086 157.014 374.572 168.528L375.279 169.235ZM402.786 141.727C405.913 138.47 406.814 134.336 406.185 130.22C405.559 126.114 403.412 122.01 400.42 118.732C397.428 115.453 393.557 112.963 389.446 112.133C385.317 111.299 380.971 112.147 377.098 115.503L377.753 116.259C381.38 113.115 385.409 112.338 389.248 113.113C393.106 113.893 396.798 116.247 399.681 119.406C402.564 122.564 404.605 126.492 405.197 130.371C405.787 134.238 404.938 138.042 402.065 141.035L402.786 141.727ZM377.098 115.503C369.581 122.018 356.692 134.782 345.695 145.905C340.194 151.468 335.161 156.626 331.504 160.392C329.676 162.275 328.191 163.811 327.163 164.876C326.65 165.408 326.25 165.823 325.979 166.104C325.843 166.245 325.74 166.353 325.67 166.425C325.635 166.461 325.609 166.489 325.591 166.507C325.583 166.516 325.576 166.523 325.572 166.528C325.569 166.53 325.568 166.532 325.567 166.533C325.566 166.534 325.566 166.534 325.565 166.534C325.565 166.535 325.565 166.535 325.925 166.881C326.286 167.227 326.286 167.227 326.286 167.227C326.287 167.227 326.287 167.226 326.288 167.226C326.289 167.225 326.29 167.223 326.293 167.221C326.297 167.216 326.304 167.209 326.312 167.2C326.33 167.182 326.356 167.154 326.391 167.118C326.46 167.046 326.564 166.939 326.699 166.798C326.97 166.517 327.369 166.102 327.883 165.57C328.91 164.506 330.394 162.971 332.222 161.089C335.877 157.324 340.907 152.169 346.406 146.608C357.409 135.48 370.27 122.744 377.753 116.259L377.098 115.503ZM78.9254 223.381C78.6254 223.781 78.6252 223.781 78.6252 223.781C78.6253 223.781 78.6253 223.781 78.6254 223.781C78.6258 223.781 78.6264 223.782 78.6273 223.783C78.6292 223.784 78.6322 223.786 78.6364 223.789C78.6448 223.796 78.6578 223.806 78.6752 223.819C78.7101 223.846 78.7626 223.888 78.8309 223.943C78.9675 224.053 79.1673 224.219 79.4156 224.437C79.9124 224.874 80.6026 225.52 81.3702 226.353C82.9076 228.021 84.7427 230.425 85.9631 233.384C87.1813 236.338 87.7854 239.84 86.876 243.728C85.9662 247.618 83.5303 251.94 78.5858 256.514L79.2649 257.248C84.3204 252.572 86.8845 248.082 87.8497 243.956C88.8153 239.828 88.1694 236.111 86.8876 233.003C85.6079 229.9 83.693 227.397 82.1055 225.675C81.3106 224.812 80.5945 224.142 80.0757 223.686C79.8163 223.458 79.6059 223.283 79.4593 223.165C79.386 223.106 79.3286 223.061 79.289 223.03C79.2692 223.015 79.2539 223.003 79.2432 222.995C79.2378 222.99 79.2337 222.987 79.2307 222.985C79.2292 222.984 79.228 222.983 79.2271 222.982C79.2267 222.982 79.2262 222.982 79.226 222.982C79.2256 222.981 79.2254 222.981 78.9254 223.381ZM78.5858 256.514C58.5785 275.021 48.5485 286.551 31.0718 304.028L31.7789 304.735C49.3022 287.211 59.2724 275.741 79.2649 257.248L78.5858 256.514ZM31.0718 304.028C26.7962 308.303 22.2937 309.58 18.1463 308.972C13.9758 308.361 10.0926 305.834 7.11725 302.368C4.1427 298.903 2.11209 294.54 1.61725 290.331C1.12321 286.127 2.15994 282.114 5.26451 279.248L4.58623 278.514C1.19078 281.648 0.10251 286.01 0.62409 290.447C1.14488 294.878 3.27052 299.422 6.35847 303.019C9.44562 306.616 13.5312 309.307 18.0013 309.962C22.4946 310.62 27.3046 309.209 31.7789 304.735L31.0718 304.028ZM5.26451 279.248C11.7714 273.242 18.4016 266.737 23.4039 261.735C25.9054 259.233 28.0004 257.107 29.4701 255.606C30.205 254.855 30.7836 254.261 31.1786 253.854C31.3761 253.651 31.5277 253.495 31.6299 253.389C31.681 253.336 31.7198 253.296 31.7459 253.269C31.7589 253.255 31.7687 253.245 31.7753 253.238C31.7786 253.235 31.7811 253.232 31.7828 253.231C31.7836 253.23 31.7842 253.229 31.7846 253.229C31.7849 253.229 31.785 253.228 31.7851 253.228C31.7852 253.228 31.7853 253.228 31.4254 252.881C31.0654 252.534 31.0654 252.534 31.0653 252.534C31.0652 252.534 31.0651 252.534 31.0649 252.535C31.0645 252.535 31.0639 252.536 31.0631 252.536C31.0614 252.538 31.059 252.541 31.0558 252.544C31.0493 252.551 31.0395 252.561 31.0266 252.574C31.0008 252.601 30.9622 252.641 30.9113 252.694C30.8094 252.799 30.6583 252.955 30.4612 253.158C30.0671 253.564 29.4895 254.157 28.7556 254.906C27.2879 256.405 25.1954 258.529 22.6968 261.028C17.6991 266.025 11.0793 272.52 4.58623 278.514L5.26451 279.248ZM31.4254 252.881C31.7999 253.212 31.8001 253.212 31.8003 253.212C31.8004 253.212 31.8007 253.211 31.801 253.211C31.8016 253.21 31.8023 253.21 31.8032 253.209C31.805 253.207 31.8075 253.204 31.8107 253.2C31.817 253.193 31.826 253.182 31.8376 253.169C31.8607 253.142 31.894 253.103 31.9365 253.051C32.0215 252.949 32.1432 252.799 32.2931 252.604C32.5928 252.215 33.0057 251.649 33.4639 250.932C34.3791 249.499 35.4807 247.457 36.2164 245.026C37.6942 240.143 37.6877 233.693 31.7864 227.535L31.0644 228.227C36.663 234.069 36.6566 240.119 35.2593 244.736C34.5575 247.055 33.5029 249.013 32.6212 250.393C32.1809 251.082 31.7853 251.625 31.501 251.994C31.3589 252.178 31.2447 252.319 31.1669 252.413C31.128 252.46 31.0982 252.495 31.0785 252.518C31.0686 252.529 31.0613 252.538 31.0567 252.543C31.0543 252.546 31.0527 252.548 31.0517 252.549C31.0512 252.549 31.0509 252.55 31.0508 252.55C31.0507 252.55 31.0507 252.55 31.0507 252.55C31.0508 252.55 31.0509 252.55 31.4254 252.881ZM31.7864 227.535C20.2901 215.539 17.799 212.549 5.29225 199.041L4.55849 199.721C17.0519 213.214 19.5606 216.223 31.0644 228.227L31.7864 227.535ZM5.29225 199.041C-0.703837 192.566 1.50779 182.877 7.47343 176.665C10.44 173.576 14.2891 171.411 18.407 170.98C22.5096 170.551 26.9306 171.837 31.0827 175.745L31.7681 175.017C27.4201 170.925 22.7161 169.524 18.303 169.985C13.9053 170.445 9.84813 172.749 6.75219 175.972C0.592829 182.386 -1.94551 192.697 4.55849 199.721L5.29225 199.041ZM31.0827 175.745C39.5741 183.737 51.4425 195.73 61.1924 205.73C66.0664 210.729 70.4093 215.228 73.5337 218.478C75.0959 220.102 76.3534 221.414 77.2204 222.32C77.6538 222.773 77.9896 223.125 78.2171 223.363C78.3308 223.482 78.4174 223.573 78.4756 223.634C78.5047 223.664 78.5266 223.687 78.5413 223.703C78.5487 223.711 78.5542 223.716 78.5579 223.72C78.5597 223.722 78.5611 223.724 78.5621 223.725C78.5625 223.725 78.5629 223.725 78.5631 223.726C78.5633 223.726 78.5634 223.726 78.9254 223.381C79.2873 223.036 79.2872 223.036 79.2869 223.036C79.2867 223.035 79.2864 223.035 79.2859 223.035C79.2849 223.034 79.2836 223.032 79.2817 223.03C79.278 223.026 79.2724 223.02 79.265 223.013C79.2503 222.997 79.2283 222.974 79.1991 222.944C79.1408 222.883 79.0541 222.792 78.9403 222.672C78.7126 222.434 78.3766 222.082 77.9429 221.629C77.0754 220.723 75.8173 219.41 74.2545 217.784C71.129 214.534 66.7844 210.033 61.9084 205.032C52.1584 195.032 40.2767 183.025 31.7681 175.017L31.0827 175.745ZM32.7871 137.036C22.3811 126.134 18.749 114.18 19.7126 102.955C20.6775 91.7164 26.254 81.1661 34.3408 73.1103C50.5328 56.9804 76.591 50.9934 95.579 69.2416L96.2719 68.5206C76.7599 49.7688 50.0681 56.0318 33.635 72.4018C25.4093 80.596 19.7046 91.3582 18.7163 102.87C17.7269 114.395 21.4697 126.628 32.0638 137.726L32.7871 137.036ZM95.579 69.2416C114.825 87.7375 132.696 105.609 145.757 118.857C152.287 125.481 157.614 130.949 161.309 134.76C163.156 136.666 164.595 138.158 165.572 139.173C166.061 139.681 166.434 140.069 166.685 140.331C166.81 140.461 166.905 140.56 166.969 140.627C167 140.66 167.024 140.685 167.04 140.702C167.048 140.71 167.054 140.716 167.058 140.72C167.06 140.722 167.062 140.724 167.063 140.725C167.063 140.726 167.064 140.726 167.064 140.726C167.064 140.727 167.064 140.727 167.425 140.381C167.787 140.035 167.787 140.035 167.786 140.035C167.786 140.035 167.786 140.034 167.785 140.034C167.784 140.033 167.783 140.031 167.781 140.029C167.777 140.025 167.771 140.019 167.763 140.01C167.747 139.993 167.723 139.968 167.691 139.935C167.627 139.869 167.532 139.769 167.406 139.638C167.155 139.376 166.781 138.988 166.293 138.48C165.315 137.464 163.875 135.971 162.027 134.064C158.33 130.251 153.001 124.781 146.469 118.155C133.404 104.903 115.526 87.0246 96.2719 68.5206L95.579 69.2416ZM167.425 140.381C167.115 139.989 167.115 139.989 167.114 139.99C167.114 139.99 167.113 139.991 167.112 139.991C167.111 139.993 167.108 139.994 167.105 139.997C167.099 140.002 167.09 140.009 167.079 140.018C167.056 140.036 167.022 140.064 166.979 140.099C166.892 140.171 166.764 140.277 166.601 140.417C166.274 140.697 165.803 141.111 165.221 141.655C164.057 142.743 162.45 144.348 160.671 146.423C157.114 150.57 152.858 156.605 150.081 164.146C147.303 171.691 146.007 180.745 148.376 190.909C150.745 201.071 156.769 212.306 168.57 224.233L169.281 223.529C157.582 211.706 151.669 200.629 149.35 190.682C147.032 180.736 148.298 171.883 151.02 164.491C153.743 157.095 157.924 151.161 161.43 147.074C163.182 145.031 164.763 143.453 165.904 142.386C166.474 141.853 166.934 141.448 167.251 141.177C167.409 141.041 167.532 140.94 167.614 140.872C167.655 140.838 167.686 140.813 167.706 140.797C167.717 140.788 167.724 140.782 167.729 140.778C167.732 140.776 167.733 140.775 167.734 140.774C167.735 140.774 167.735 140.773 167.736 140.773C167.736 140.773 167.736 140.773 167.425 140.381ZM168.57 224.233C192.068 247.981 206.066 262.479 214.187 271.038C218.248 275.317 220.839 278.112 222.415 279.836C223.203 280.697 223.736 281.292 224.072 281.669C224.24 281.858 224.359 281.993 224.435 282.081C224.474 282.124 224.501 282.156 224.519 282.177C224.528 282.187 224.535 282.195 224.539 282.2C224.541 282.202 224.543 282.204 224.544 282.205C224.544 282.206 224.544 282.206 224.545 282.206C224.545 282.206 224.545 282.206 224.545 282.207C224.545 282.207 224.545 282.207 224.924 281.881C225.304 281.556 225.304 281.556 225.304 281.556C225.304 281.555 225.304 281.555 225.303 281.555C225.303 281.555 225.303 281.554 225.302 281.553C225.301 281.552 225.299 281.55 225.296 281.547C225.292 281.541 225.285 281.533 225.275 281.522C225.256 281.5 225.227 281.467 225.188 281.422C225.11 281.333 224.989 281.196 224.82 281.005C224.48 280.623 223.943 280.026 223.153 279.161C221.572 277.432 218.977 274.632 214.913 270.349C206.785 261.784 192.782 247.281 169.281 223.529L168.57 224.233ZM224.924 281.881C224.562 281.537 224.561 281.537 224.561 281.538C224.56 281.539 224.559 281.54 224.558 281.541C224.555 281.544 224.552 281.548 224.546 281.553C224.536 281.564 224.521 281.58 224.501 281.601C224.461 281.643 224.401 281.707 224.321 281.791C224.162 281.958 223.925 282.208 223.614 282.535C222.992 283.19 222.074 284.156 220.89 285.4C218.523 287.888 215.094 291.489 210.844 295.942C202.345 304.848 190.564 317.16 177.44 330.784C151.19 358.034 119.57 390.529 98.0761 411.523L98.7748 412.239C120.281 391.233 151.91 358.728 178.16 331.478C191.286 317.852 203.067 305.539 211.568 296.633C215.818 292.179 219.248 288.577 221.615 286.089C222.798 284.845 223.717 283.879 224.339 283.224C224.65 282.897 224.887 282.647 225.046 282.479C225.126 282.395 225.186 282.332 225.226 282.289C225.247 282.268 225.262 282.252 225.272 282.241C225.277 282.236 225.281 282.232 225.283 282.229C225.285 282.228 225.286 282.227 225.286 282.226C225.287 282.226 225.287 282.225 224.924 281.881ZM98.0761 411.523C87.434 421.918 75.6202 425.082 64.4751 423.433C53.3103 421.782 42.7695 415.293 34.7358 406.298C18.643 388.279 12.7936 360.473 31.7766 341.737L31.0741 341.025C11.5571 360.289 17.7077 388.733 33.99 406.964C42.1438 416.094 52.8843 422.73 64.3288 424.423C75.7932 426.118 87.9169 422.844 98.7748 412.239L98.0761 411.523ZM31.7766 341.737C70.2797 303.734 88.7823 284.731 104.784 268.229L104.066 267.533C88.0685 284.031 69.5712 303.028 31.0741 341.025L31.7766 341.737ZM104.784 268.229C112.916 259.844 115.304 248.185 114.737 237.604C114.454 232.309 113.429 227.264 112.001 223.003C110.576 218.751 108.736 215.244 106.8 213.05L106.051 213.712C107.865 215.768 109.65 219.136 111.053 223.321C112.453 227.498 113.46 232.453 113.739 237.658C114.297 248.077 111.935 259.418 104.066 267.533L104.784 268.229ZM106.8 213.05C103.038 208.786 95.0215 200.77 82.7183 188.342C70.4069 175.905 53.7842 159.033 32.7871 137.036L32.0638 137.726C53.0668 159.729 69.6941 176.607 82.0076 189.045C94.3294 201.492 102.313 209.476 106.051 213.712L106.8 213.05Z" fill="black"/>
</svg>
